overground_17_grf.mot
version=3
nRows 5150
nColumns  28
inDegrees=no
endheader
            time	ground_force_1_vx	ground_force_1_vy	ground_force_1_vz	ground_force_1_px	ground_force_1_py	ground_force_1_pz	ground_torque_1_x	ground_torque_1_y	ground_torque_1_z	ground_force_2_vx	ground_force_2_vy	ground_force_2_vz	ground_force_2_px	ground_force_2_py	ground_force_2_pz	ground_torque_2_x	ground_torque_2_y	ground_torque_2_z	ground_force_3_vx	ground_force_3_vy	ground_force_3_vz	ground_force_3_px	ground_force_3_py	ground_force_3_pz	ground_torque_3_x	ground_torque_3_y	ground_torque_3_z	
      1.28750000	    139.97375325	    728.88307355	     51.04834481	     -0.20948597	      0.00000000	     -0.31411612	      0.00000000	      0.45873315	      0.00000000	     -9.58305634	    236.30256666	     18.35682419	      0.31882331	      0.00000000	     -0.17403190	      0.00000000	      0.02517026	      0.00000000	      0.00000000	      0.00000000	      0.00000000	      0.00000000	      0.00000000	      0.00000000	      0.00000000	      0.00000000	      0.00000000	
      1.28800000	    140.27947549	    727.53434191	     50.75296809	     -0.20933369	      0.00000000	     -0.31406332	      0.00000000	      0.44616142	      0.00000000	    -11.48543415	    240.55035386	     19.00847162	      0.31918181	      0.00000000	     -0.17424755	      0.00000000	     -0.00211068	      0.00000000	      0.00000000	      0.00000000	      0.00000000	      0.00000000	      0.00000000	      0.00000000	      0.00000000	      0.00000000	      0.00000000	
      1.28850000	    140.57921527	    726.15319954	     50.45236955	     -0.20918079	      0.00000000	     -0.31401004	      0.00000000	      0.43319204	      0.00000000	    -13.40105498	    244.81483553	     19.66958244	      0.31954245	      0.00000000	     -0.17445605	      0.00000000	     -0.03067540	      0.00000000	      0.00000000	      0.00000000	      0.00000000	      0.00000000	      0.00000000	      0.00000000	      0.00000000	      0.00000000	      0.00000000	
      1.28900000	    140.87273365	    724.73973358	     50.14670147	     -0.20902724	      0.00000000	     -0.31395629	      0.00000000	      0.41984625	      0.00000000	    -15.32716692	    249.09811862	     20.33922995	      0.31990494	      0.00000000	     -0.17465754	      0.00000000	     -0.06050423	      0.00000000	      0.00000000	      0.00000000	      0.00000000	      0.00000000	      0.00000000	      0.00000000	      0.00000000	      0.00000000	      0.00000000	
      1.28950000	    141.15980278	    723.29404916	     49.83612010	     -0.20887302	      0.00000000	     -0.31390209	      0.00000000	      0.40614586	      0.00000000	    -17.26113786	    253.40227011	     21.01643883	      0.32026904	      0.00000000	     -0.17485217	      0.00000000	     -0.09157339	      0.00000000	      0.00000000	      0.00000000	      0.00000000	      0.00000000	      0.00000000	      0.00000000	      0.00000000	      0.00000000	      0.00000000	
      1.29000000	    141.44020712	    721.81626839	     49.52078541	     -0.20871812	      0.00000000	     -0.31384744	      0.00000000	      0.39211323	      0.00000000	    -19.20046227	    257.72930125	     21.70018847	      0.32063448	      0.00000000	     -0.17504008	      0.00000000	     -0.12385499	      0.00000000	      0.00000000	      0.00000000	      0.00000000	      0.00000000	      0.00000000	      0.00000000	      0.00000000	      0.00000000	      0.00000000	
      1.29050000	    141.71374449	    720.30652929	     49.20086065	     -0.20856252	      0.00000000	     -0.31379236	      0.00000000	      0.37777122	      0.00000000	    -21.14276662	    262.08115247	     22.38941645	      0.32100104	      0.00000000	     -0.17522140	      0.00000000	     -0.15731700	      0.00000000	      0.00000000	      0.00000000	      0.00000000	      0.00000000	      0.00000000	      0.00000000	      0.00000000	      0.00000000	      0.00000000	
      1.29100000	    141.98022729	    718.76498468	     48.87651202	     -0.20840620	      0.00000000	     -0.31373684	      0.00000000	      0.36314318	      0.00000000	    -23.08581355	    266.45967907	     23.08302226	      0.32136852	      0.00000000	     -0.17539626	      0.00000000	     -0.19192323	      0.00000000	      0.00000000	      0.00000000	      0.00000000	      0.00000000	      0.00000000	      0.00000000	      0.00000000	      0.00000000	      0.00000000	
      1.29150000	    142.23948345	    717.19180107	     48.54790819	     -0.20824917	      0.00000000	     -0.31368091	      0.00000000	      0.34825284	      0.00000000	    -25.02750489	    270.86663774	     23.77987113	      0.32173672	      0.00000000	     -0.17556477	      0.00000000	     -0.22763341	      0.00000000	      0.00000000	      0.00000000	      0.00000000	      0.00000000	      0.00000000	      0.00000000	      0.00000000	      0.00000000	      0.00000000	
      1.29200000	    142.49135753	    715.58715753	     48.21521992	     -0.20809141	      0.00000000	     -0.31362456	      0.00000000	      0.33312428	      0.00000000	    -26.96588336	    275.30367390	     24.47879803	      0.32210548	      0.00000000	     -0.17572705	      0.00000000	     -0.26440318	      0.00000000	      0.00000000	      0.00000000	      0.00000000	      0.00000000	      0.00000000	      0.00000000	      0.00000000	      0.00000000	      0.00000000	
      1.29250000	    142.73571159	    713.95124454	     47.87861949	     -0.20793291	      0.00000000	     -0.31356782	      0.00000000	      0.31778184	      0.00000000	    -28.89913322	    279.77230998	     25.17861173	      0.32247465	      0.00000000	     -0.17588321	      0.00000000	     -0.30218420	      0.00000000	      0.00000000	      0.00000000	      0.00000000	      0.00000000	      0.00000000	      0.00000000	      0.00000000	      0.00000000	      0.00000000	
      1.29300000	    142.97242611	    712.28426287	     47.53828026	     -0.20777367	      0.00000000	     -0.31351067	      0.00000000	      0.30225008	      0.00000000	    -30.82557976	    284.27393452	     25.87809900	      0.32284409	      0.00000000	     -0.17603333	      0.00000000	     -0.34092417	      0.00000000	      0.00000000	      0.00000000	      0.00000000	      0.00000000	      0.00000000	      0.00000000	      0.00000000	      0.00000000	      0.00000000	
      1.29350000	    143.20140076	    710.58642245	     47.19437610	     -0.20761370	      0.00000000	     -0.31345315	      0.00000000	      0.28655368	      0.00000000	    -32.74368778	    288.80979231	     26.57602878	      0.32321370	      0.00000000	     -0.17617752	      0.00000000	     -0.38056702	      0.00000000	      0.00000000	      0.00000000	      0.00000000	      0.00000000	      0.00000000	      0.00000000	      0.00000000	      0.00000000	      0.00000000	
      1.29400000	    143.42255513	    708.85794121	     46.84708084	     -0.20745298	      0.00000000	     -0.31339525	      0.00000000	      0.27071734	      0.00000000	    -34.65205917	    293.38097540	     27.27115643	      0.32358337	      0.00000000	     -0.17631586	      0.00000000	     -0.42105294	      0.00000000	      0.00000000	      0.00000000	      0.00000000	      0.00000000	      0.00000000	      0.00000000	      0.00000000	      0.00000000	      0.00000000	
